<svg width="1512" height="1037" viewBox="0 0 1512 1037" fill="none" xmlns="http://www.w3.org/2000/svg">
<path fill-rule="evenodd" clip-rule="evenodd" d="M173.049 -1.39446H0.605771V170.982H155.183L173.049 153.123V-1.39446ZM191.39 170.982L173.755 153.354V-1.39446H346.198V170.982H191.39ZM173.755 189.053L191.127 171.688H346.198V344.064H173.755V189.053ZM155.446 171.688L173.049 189.284V344.064H0.605771V171.688H155.446ZM0 -2V171.083V171.587V344.165V344.67V517.247V517.752V690.33V690.835V863.413V863.917V1037H173.15H173.654H346.299H346.804H519.448H519.953H692.598H693.103H865.747H866.252H1038.9H1039.4H1212.05H1212.55H1385.2H1385.7H1558.35H1558.85H1732L1732 863.917V690.835V690.33V517.247V344.67V171.587V171.083V-2H1558.85H1558.35H1385.7H1385.2H1212.55H1212.05H1039.4H1038.9H866.252H865.747H693.103H692.598H519.953H519.448H346.804H346.299H173.654H173.15H0ZM346.904 -1.39446H519.347V170.982H346.904V-1.39446ZM692.497 -1.39446H520.054V170.982H692.497V-1.39446ZM693.204 -1.39446H865.647V170.982H693.204V-1.39446ZM1038.8 -1.39446H866.353V170.982H1038.8V-1.39446ZM1039.5 -1.39446H1211.95V170.982H1039.5V-1.39446ZM1385.09 -1.39446H1212.65V170.982H1385.09V-1.39446ZM1385.8 -1.39446H1558.24V170.982H1385.8V-1.39446ZM1731.39 -1.39446H1558.95V170.982H1731.39V-1.39446ZM346.904 171.688H519.347V344.064H346.904V171.688ZM692.497 171.688H520.054V344.064H675.151L692.497 326.726V171.688ZM710.272 344.064L693.204 327.003V171.688H865.647V344.064H710.272ZM693.204 362.656L711.037 344.829L710.978 344.77H865.647V517.146H693.204V362.656ZM674.445 344.77L674.386 344.829L692.497 362.933V517.146H520.054V344.77H674.445ZM1038.8 171.688H866.353V344.064H1038.8V171.688ZM1039.5 171.688H1211.95V344.064H1039.5V171.688ZM1385.09 171.688H1212.65V344.064H1385.09V171.688ZM1385.8 171.688H1558.24V296.242L1557.95 296.534L1510.4 344.064H1385.8V171.688ZM1509.7 344.77H1385.8V500.164L1386.38 499.586L1403.95 517.146H1558.24V393.418L1557.95 393.125L1510.11 345.297L1509.64 344.829L1509.7 344.77ZM1558.24 392.482L1510.57 344.829L1510.63 344.77H1540.15L1540.09 344.829L1558.24 362.973V392.482ZM1558.95 393.061V517.146H1731.39V344.77H1607.14L1607.2 344.829L1606.73 345.297L1558.95 393.061ZM1606.21 344.77L1606.27 344.829L1558.95 392.126V362.617L1576.74 344.829L1576.69 344.77H1606.21ZM1606.44 344.064H1731.39V171.688H1558.95V296.598L1606.44 344.064ZM1558.95 297.534L1605.5 344.064H1575.98L1558.95 327.043V297.534ZM1558.24 297.177L1511.34 344.064H1540.86L1558.24 326.687V297.177ZM1385.8 535.643L1386.38 536.222L1404.71 517.904L1404.66 517.853H1558.24V690.229H1385.8V535.643ZM1368.11 517.853L1368.06 517.904L1385.09 534.937V690.229H1212.65V517.853H1368.11ZM1385.09 500.871L1368.81 517.146H1212.65V344.77H1385.09V500.871ZM0.605771 344.77H173.049V517.146H0.605771V344.77ZM346.198 344.77H173.755V517.146H346.198V344.77ZM346.904 344.77H519.347V517.146H346.904V344.77ZM1038.8 344.77H866.353V517.146H1038.8V344.77ZM1039.5 344.77H1211.95V517.146H1039.5V344.77ZM0.605771 517.853H173.049V690.229H0.605771V517.853ZM346.198 517.853H173.755V690.229H298.551L298.327 690.005L298.795 689.537L346.198 642.152V517.853ZM346.198 643.088L299.263 690.005L299.487 690.229H329.008L328.784 690.005L346.198 672.597V643.088ZM346.904 671.891V642.382L347.109 642.177L394.955 690.005L394.731 690.229H365.21L365.434 690.005L347.109 671.687L346.904 671.891ZM346.904 708.119L347.109 708.323L364.503 690.936H394.024L347.109 737.833L346.904 737.628V708.119ZM329.715 690.936L346.198 707.413V736.922L300.194 690.936H329.715ZM299.258 690.936H173.755V863.312H346.198V737.858L299.258 690.936ZM346.904 738.564V863.312H519.347V690.936H394.96L347.577 738.3L347.109 738.768L346.904 738.564ZM395.666 690.229H519.347V517.853H346.904V641.446L347.109 641.242L347.577 641.71L395.423 689.537L395.891 690.005L395.666 690.229ZM692.497 517.853H520.054V690.229H692.497V517.853ZM693.204 517.853H865.647V690.229H693.204V517.853ZM1038.8 517.853H866.353V690.229H1038.8V517.853ZM1039.5 517.853H1211.95V690.229H1039.5V517.853ZM1731.39 517.853H1558.95V690.229H1731.39V517.853ZM0.605771 690.936H173.049V863.312H0.605771V690.936ZM692.497 690.936H520.054V863.312H692.497V690.936ZM693.204 690.936H865.647V863.312H693.204V690.936ZM1038.8 690.936H866.353V863.312H1038.8V690.936ZM1039.5 690.936H1211.95V863.312H1039.5V690.936ZM1385.09 690.936H1212.65V863.312H1385.09V690.936ZM1385.8 690.936H1558.24V863.312H1385.8V690.936ZM1731.39 690.936H1558.95V863.312H1731.39V690.936ZM0.605771 864.018H173.049V1036.39H0.605771V864.018ZM346.198 864.018H173.755V1036.39H346.198V864.018ZM346.904 864.018H519.347V1036.39H346.904V864.018ZM692.497 864.018H520.054V1036.39H692.497V864.018ZM693.204 864.018H865.647V1036.39H693.204V864.018ZM1038.8 864.018H866.353V1036.39H1038.8V864.018ZM1039.5 864.018H1211.95V1036.39H1039.5V864.018ZM1385.09 864.018H1212.65V1036.39H1385.09V864.018ZM1385.8 864.018H1558.24V1036.39H1385.8V864.018ZM1731.39 864.018H1558.95V1036.39H1731.39V864.018Z" fill="url(#paint0_radial_69_1392)" fill-opacity="0.4"/>
<defs>
<radialGradient id="paint0_radial_69_1392" cx="0" cy="0" r="1" gradientUnits="userSpaceOnUse" gradientTransform="translate(866 -585.162) rotate(90) scale(1491.25 2485.9)">
<stop stop-color="white"/>
<stop offset="1" stop-color="white" stop-opacity="0"/>
</radialGradient>
</defs>
</svg>
